<?xml version="1.0" encoding="UTF-8" standalone="no"?>
<!DOCTYPE svg PUBLIC "-//W3C//DTD SVG 1.1//EN" "http://www.w3.org/Graphics/SVG/1.1/DTD/svg11.dtd">
<!-- Created with Vectornator (http://vectornator.io/) -->
<svg height="100%" stroke-miterlimit="10" style="fill-rule:nonzero;clip-rule:evenodd;stroke-linecap:round;stroke-linejoin:round;" version="1.1" viewBox="0 0 528 208" width="100%" xml:space="preserve" xmlns="http://www.w3.org/2000/svg" xmlns:vectornator="http://vectornator.io" xmlns:xlink="http://www.w3.org/1999/xlink">
<defs/>
<clipPath id="ArtboardFrame">
<rect height="208" width="528" x="0" y="0"/>
</clipPath>
<g clip-path="url(#ArtboardFrame)" id="Untitled" vectornator:layerName="Untitled">
<path d="M109 209C73.0472 209 37.0944 209 1.07082 209C1.07082 139.667 1.07082 70.3334 1.07787 1.00001C7.07703 1 13.0691 1 19.5314 1.41963C21.3346 8.50287 22.6675 15.1665 23.5593 21.9027C21.8518 21.9753 20.5855 21.9753 19.3522 21.9753C19.3522 80.5925 19.3522 138.709 19.3522 197.17C48.4711 197.17 77.2357 197.17 106.018 197.531C107.023 201.595 108.012 205.297 109 209Z" fill="#ff4057" fill-rule="nonzero" opacity="1" stroke="none" vectornator:layerName="path"/>
<path d="M410 1C449.586 1 489.172 1 529 1C529 33.0205 529 65.0416 528.638 97.4713C526.557 97.2616 524.754 96.8105 523.14 95.989C520.092 94.4385 517.153 92.6749 514.096 90.5361C514.023 67.4747 514.023 44.8769 514.023 21.9953C511.433 21.9953 509.458 21.9986 507.484 21.9948C478.989 21.9403 450.495 21.8848 421.984 21.476C421.264 19.8659 420.593 18.5902 419.853 17.3559C416.579 11.8974 413.286 6.45088 410 1Z" fill="#ff4057" fill-rule="nonzero" opacity="1" stroke="none" vectornator:layerName="path"/>
<path d="M205 0.999999C240.021 1 275.042 1 310.531 1.41353C311.687 4.10372 312.189 6.45707 313.099 8.64096C314.95 13.0857 317.02 17.439 318.537 21.9026C282.716 21.9264 247.358 21.8777 211.982 21.4675C209.642 14.4041 207.321 7.70204 205 0.999999Z" fill="#ff4057" fill-rule="nonzero" opacity="1" stroke="none" vectornator:layerName="path"/>
<path d="M319.001 21.83C317.02 17.439 314.95 13.0857 313.099 8.64096C312.189 6.45707 311.687 4.10372 311 1.41353C343.688 1 376.375 1 409.531 1C413.286 6.45088 416.579 11.8974 419.853 17.3559C420.593 18.5902 421.264 19.8659 421.52 21.5487C387.049 21.9266 353.025 21.8783 319.001 21.83Z" fill="#ff4057" fill-rule="nonzero" opacity="1" stroke="none" vectornator:layerName="path"/>
<path d="M204.531 0.999999C207.321 7.70204 209.642 14.4041 211.518 21.5403C178.382 21.9263 145.691 21.8781 112.982 21.4703C109.691 14.8067 106.847 8.39664 108 1C140.021 1 172.042 1 204.531 0.999999Z" fill="#ff4057" fill-rule="nonzero" opacity="1" stroke="none" vectornator:layerName="path"/>
<path d="M107.531 1C106.847 8.39664 109.691 14.8067 112.518 21.5426C82.7153 21.9264 53.3579 21.8783 24.0005 21.8301C22.6675 15.1665 21.3346 8.50287 20.0008 1.41963C49.0209 1 78.0418 1 107.531 1Z" fill="#ff4057" fill-rule="nonzero" opacity="1" stroke="none" vectornator:layerName="path"/>
<path d="M351 209C308.979 209 266.958 209 224.466 208.62C223.177 206.507 222.438 204.732 221.521 203.054C220.427 201.049 219.181 199.128 218.464 197.098C227.233 197.019 235.539 196.996 243.844 197.008C276.896 197.056 309.948 197.115 343.018 197.526C344.053 199.278 345.081 200.667 346.085 202.073C347.732 204.376 349.363 206.69 351 209Z" fill="#ff4057" fill-rule="nonzero" opacity="1" stroke="none" vectornator:layerName="path"/>
<path d="M351.469 209C349.363 206.69 347.732 204.376 346.085 202.073C345.081 200.667 344.053 199.278 343.482 197.454C381.952 197.074 419.976 197.122 458.127 197.495C459.086 198.22 459.879 198.765 460.755 198.996C465.295 200.19 468.52 204.054 469 209C429.979 209 390.958 209 351.469 209Z" fill="#ff4057" fill-rule="nonzero" opacity="1" stroke="none" vectornator:layerName="path"/>
<path d="M218 197.17C219.181 199.128 220.427 201.049 221.521 203.054C222.438 204.732 223.177 206.507 223.997 208.62C185.979 209 147.958 209 109.469 209C108.012 205.297 107.023 201.595 106.481 197.459C143.952 197.074 180.976 197.122 218 197.17Z" fill="#ff4057" fill-rule="nonzero" opacity="1" stroke="none" vectornator:layerName="path"/>
<path d="M469.469 209C468.52 204.054 465.295 200.19 460.755 198.996C459.879 198.765 459.086 198.22 458.591 197.423C477.192 197.026 495.456 197.026 514.168 197.026C514.168 184.272 514.168 172.136 514.521 160.07C519.582 162.093 524.291 164.047 529 166C529 180.272 529 194.544 529 209C509.313 209 489.625 209 469.469 209Z" fill="#ff4057" fill-rule="nonzero" opacity="1" stroke="none" vectornator:layerName="path"/>
<path d="M529 165.531C524.291 164.047 519.582 162.093 514.448 159.606C514.071 136.382 514.12 113.691 514.168 90.9998C517.153 92.6749 520.092 94.4385 523.14 95.989C524.754 96.8105 526.557 97.2616 528.638 97.94C529 120.354 529 142.708 529 165.531Z" fill="#ff4057" fill-rule="nonzero" opacity="1" stroke="none" vectornator:layerName="path"/>
<path d="M501.493 314.085C501.517 337.24 501.469 359.931 501.493 383.085C501.565 395.685 501.565 407.821 501.565 420.575C482.853 420.575 464.589 420.575 445.861 420.647C407.373 420.671 369.349 420.623 330.862 420.647C297.346 420.664 264.293 420.605 231.241 420.557C222.936 420.545 214.63 420.568 205.861 420.647C168.373 420.671 131.349 420.623 93.8613 420.647C64.6329 420.719 35.8682 420.719 6.74932 420.719C6.74932 362.258 6.74932 304.142 6.74932 245.525C7.9826 245.525 9.24894 245.525 10.9565 245.452C40.755 245.428 70.1125 245.476 99.9336 245.452C133.088 245.427 165.779 245.476 198.934 245.451C234.755 245.427 270.113 245.476 305.934 245.452C340.422 245.428 374.446 245.476 408.934 245.451C437.892 245.434 466.387 245.49 494.881 245.544C496.855 245.548 498.83 245.545 501.42 245.545C501.42 268.426 501.42 291.024 501.493 314.085M59.8971 354.39C74.7791 354.39 89.6611 354.39 104.575 354.39C104.575 340.418 104.575 327.199 104.575 314.061C80.9882 314.061 57.7813 314.061 34.6643 314.061C34.6643 327.632 34.6643 340.849 34.6643 354.39C42.9792 354.39 50.9382 354.39 59.8971 354.39M104.941 294.041C104.941 285.604 104.941 277.168 104.941 268.667C81.1171 268.667 57.9117 268.667 34.6787 268.667C34.6787 282.141 34.6787 295.331 34.6787 308.329C58.2294 308.329 81.4119 308.329 104.941 308.329C104.941 303.645 104.941 299.341 104.941 294.041M49.9 359.384C44.8069 359.384 39.7139 359.384 34.6042 359.384C34.6042 373.09 34.6042 386.151 34.6042 399.249C58.1095 399.249 81.3215 399.249 104.621 399.249C104.621 385.877 104.621 372.805 104.621 359.384C86.5014 359.384 68.7 359.384 49.9 359.384M192.574 270.056C192.574 265.634 192.574 261.212 192.574 256.71C187.098 256.71 182.31 256.71 177.162 256.71C174.873 272.312 172.601 287.806 170.329 303.3C169.933 303.304 169.536 303.308 169.14 303.312C166.562 287.806 163.985 272.299 161.408 256.802C156.168 256.802 151.241 256.802 146.271 256.802C146.271 280.435 146.271 303.805 146.271 327.162C149.457 327.162 152.241 327.162 155.341 327.162C155.341 311.161 155.341 295.385 155.341 279.609C155.613 279.58 155.885 279.552 156.157 279.524C158.737 295.359 161.316 311.195 163.92 327.18C167.535 327.18 170.823 327.18 174.61 327.18C176.973 311.002 179.339 294.799 181.706 278.597C181.955 278.617 182.203 278.637 182.452 278.657C182.452 294.758 182.452 310.86 182.452 327.144C185.896 327.144 188.976 327.144 192.574 327.144C192.574 308.284 192.574 289.669 192.574 270.056M309.448 256.574C308.777 258.115 307.745 259.599 307.493 261.206C305.272 275.373 303.191 289.562 301.068 303.744C300.706 303.753 300.344 303.763 299.982 303.772C297.455 288.109 294.927 272.446 292.405 256.815C287.138 256.815 282.217 256.815 277.277 256.815C277.277 280.455 277.277 303.817 277.277 327.159C280.468 327.159 283.25 327.159 286.344 327.159C286.344 311.158 286.344 295.385 286.344 279.612C286.615 279.583 286.886 279.554 287.157 279.526C289.736 295.357 292.315 311.188 294.919 327.175C298.51 327.175 301.784 327.175 305.364 327.175C307.814 310.949 310.247 294.833 312.68 278.717C312.957 278.74 313.234 278.763 313.512 278.786C313.512 294.871 313.512 310.956 313.512 327.107C316.991 327.107 320.07 327.107 323.193 327.107C323.193 303.459 323.193 280.1 323.193 256.544C318.661 256.544 314.51 256.544 309.448 256.574M331.857 411.07C334.517 411.02 337.339 411.519 339.801 410.796C343.959 409.575 348.856 408.557 351.725 405.718C358.806 398.71 356.015 379.813 347.787 374.066C354.595 368.01 356.898 355.915 352.116 348.218C350.599 345.775 347.586 343.122 344.94 342.735C337.349 341.625 329.596 341.627 321.827 341.187C321.827 365.013 321.827 387.74 321.827 411.07C325.002 411.07 327.957 411.07 331.857 411.07M173.427 408.279C175.411 404.402 178.9 400.602 179.104 396.633C179.807 383.017 179.632 369.333 179.244 355.69C179.017 347.735 174.145 342.43 166.78 341.842C160.024 341.302 153.19 341.727 146.417 341.727C146.417 364.861 146.417 387.755 146.417 412.171C155.543 410.956 164.154 409.81 173.427 408.279M369.391 319.766C370.014 317.71 371.155 315.66 371.176 313.598C371.329 299.117 371.556 284.626 371.123 270.157C370.892 262.45 366.057 257.592 359.107 256.272C346.102 253.801 337.904 260.215 337.631 273.517C337.379 285.832 337.557 298.156 337.614 310.476C337.621 312.121 337.927 313.787 338.271 315.406C339.687 322.059 343.449 326.406 350.388 327.642C358.626 329.109 365.066 326.667 369.391 319.766M221.172 411.074C223.444 411.074 225.715 411.074 228.387 411.074C224.621 387.524 220.958 364.617 217.309 341.802C211.693 341.802 206.599 341.802 201.261 341.802C197.58 364.9 193.933 387.78 190.253 410.87C194.017 410.87 196.981 410.87 200.095 410.87C200.833 406.674 201.541 402.648 202.254 398.593C206.821 398.593 210.943 398.593 215.4 398.593C215.922 401.814 216.156 404.979 217.047 407.946C217.425 409.202 219.185 410.042 221.172 411.074M278.506 411.073C279.774 409.971 281.734 409.089 282.166 407.723C283.09 404.803 283.224 401.633 283.655 398.741C288.46 398.741 292.713 398.741 296.896 398.741C299.318 412.118 299.318 412.118 309.81 410.504C306.161 387.596 302.513 364.691 298.866 341.795C293.274 341.795 288.175 341.795 282.79 341.795C279.125 364.857 275.492 387.714 271.78 411.074C274.353 411.074 275.997 411.074 278.506 411.073M375.568 349.262C372.353 369.699 369.138 390.135 365.92 410.594C375.497 411.732 375.498 411.732 376.988 403.216C377.24 401.772 377.475 400.324 377.736 398.769C382.311 398.769 386.694 398.769 391.01 398.769C393.177 412.391 393.177 412.391 403.827 410.394C400.179 387.51 396.528 364.61 392.897 341.833C387.235 341.833 382.138 341.833 376.931 341.833C376.496 344.198 376.109 346.302 375.568 349.262M398.149 327.393C402.075 327.393 406 327.393 409.942 327.393C413.648 303.442 417.241 280.216 420.865 256.792C417.028 256.792 413.931 256.792 410.652 256.792C408.006 275.013 405.392 293.019 402.777 311.024C402.412 310.975 402.046 310.926 401.681 310.878C399.003 292.827 396.326 274.776 393.675 256.908C389.606 256.908 386.068 256.908 382.425 256.908C385.864 279.117 389.256 300.949 392.611 322.786C393.031 325.523 393.333 328.214 398.149 327.393M458.858 261.317C458.858 283.243 458.858 305.169 458.858 327.006C469.366 327.006 479.242 327.006 488.962 327.006C488.962 323.665 488.962 320.724 488.962 317.225C482.625 317.225 476.554 317.225 470.548 317.225C470.548 310.069 470.548 303.488 470.548 296.472C475.584 296.472 480.336 296.472 485.167 296.472C485.167 292.947 485.167 289.868 485.167 286.31C480.191 286.31 475.443 286.31 470.637 286.31C470.637 279.463 470.637 273.108 470.637 266.393C476.954 266.393 482.888 266.393 488.93 266.393C488.93 262.967 488.93 259.916 488.93 256.536C479.648 256.536 470.679 256.641 461.716 256.48C458.485 256.422 458.851 258.388 458.858 261.317M429.911 401.695C422.128 401.065 425.312 394.669 424.031 390.396C420.867 390.396 417.661 390.396 414.019 390.396C414.202 393.748 414.087 396.758 414.58 399.664C415.82 406.98 421.101 411.251 428.958 411.646C437.802 412.09 443.483 408.641 445.543 401.243C447.782 393.2 446.563 385.661 441.003 379.272C437.738 375.519 433.978 372.196 430.444 368.677C426.705 364.955 424.336 360.506 425.62 355.247C426.069 353.411 428.635 351.002 430.372 350.883C432.054 350.768 434.316 352.972 435.566 354.703C436.513 356.015 436.27 358.186 436.589 360.172C439.743 360.172 442.837 360.172 445.899 360.172C447.481 349.02 441.996 341.59 431.797 340.799C421.195 339.976 414.736 346.236 414.33 357.2C413.964 367.07 419.309 373.592 426.048 379.761C429.407 382.836 432.609 386.488 434.643 390.506C437.366 395.889 435.468 399.977 429.911 401.695M459.453 350.107C459.453 370.31 459.453 390.514 459.453 410.791C469.774 410.791 479.361 410.791 488.965 410.791C488.965 407.459 488.965 404.416 488.965 400.953C482.689 400.953 476.766 400.953 470.809 400.953C470.809 393.983 470.809 387.459 470.809 380.587C475.805 380.587 480.404 380.587 485.094 380.587C485.094 377.169 485.094 374.119 485.094 370.54C480.077 370.54 475.355 370.54 470.722 370.54C470.722 363.935 470.722 357.871 470.722 351.301C477.088 351.301 483.149 351.301 489.078 351.301C489.078 347.842 489.078 344.904 489.078 341.876C479.125 341.876 469.427 341.876 459.453 341.876C459.453 344.516 459.453 346.822 459.453 350.107M237.09 256.541C235.625 256.541 234.16 256.541 232.672 256.541C229.861 267.031 227.166 277.087 224.127 288.426C221.048 276.886 218.354 266.788 215.62 256.541C213.418 256.541 211.601 256.541 209.783 256.541C208.049 256.541 206.314 256.541 204.402 256.541C209.834 280.317 221.763 302.109 217.788 327.077C222.181 327.077 225.565 327.077 229.811 327.077C225.429 301.92 237.644 280.12 242.834 256.541C240.97 256.541 239.489 256.541 237.09 256.541M264.488 341.547C254.222 341.547 243.955 341.547 233.543 341.547C233.543 345.077 233.543 348.131 233.543 351.587C237.223 351.587 240.641 351.587 244.558 351.587C244.558 371.506 244.558 391.025 244.558 410.711C248.454 410.711 251.833 410.711 255.696 410.711C255.696 390.819 255.696 371.28 255.696 351.408C259.621 351.408 263.058 351.408 267.682 351.408C266.836 347.762 266.118 344.667 264.488 341.547M443.981 268.08C443.981 264.314 443.981 260.548 443.981 256.672C440.001 256.672 436.7 256.672 433.107 256.672C433.107 280.211 433.107 303.59 433.107 327.155C436.735 327.155 440.129 327.155 443.981 327.155C443.981 307.611 443.981 288.34 443.981 268.08M118.408 344.01C115.67 344.01 112.933 344.01 110.25 344.01C110.25 347.923 110.25 351.017 110.25 354.089C113.647 354.089 116.717 354.089 120.576 354.089C120.095 350.525 119.67 347.373 118.408 344.01M19.1224 333.225C19.1224 335.016 19.1224 336.807 19.1224 338.701C22.7745 338.701 25.9367 338.701 29.0533 338.701C29.0533 335.322 29.0533 332.397 29.0533 328.956C26.4901 328.956 24.108 328.58 21.9481 329.109C20.8068 329.389 20.0524 331.247 19.1224 333.225M109.921 331.519C109.921 333.942 109.921 336.365 109.921 338.793C113.721 338.793 116.788 338.793 119.809 338.793C119.809 335.379 119.809 332.342 119.809 328.064C116.087 329.052 113.025 329.864 109.921 331.519M20.1636 354.301C23.0812 354.301 25.9987 354.301 29.1021 354.301C29.1021 350.714 29.1021 347.645 29.1021 344.271C25.8256 344.271 22.7646 344.271 19.4452 344.271C19.4452 347.548 19.4452 350.629 20.1636 354.301M110.092 269.527C110.092 272.458 110.092 275.39 110.092 278.201C113.72 278.201 116.796 278.201 119.783 278.201C119.783 274.774 119.783 271.717 119.783 268.25C116.428 268.427 113.468 268.582 110.092 269.527M111.38 389.573C110.742 392.709 110.104 395.845 109.396 399.329C113.51 399.329 116.576 399.329 119.886 399.329C119.886 396.05 119.886 393.005 119.886 389.542C117.166 389.542 114.717 389.542 111.38 389.573M120.025 292.641C120.025 289.719 120.025 286.797 120.025 283.806C116.486 283.806 113.427 283.806 110.271 283.806C110.271 287.148 110.271 290.218 110.271 293.33C113.518 293.33 116.477 293.33 120.025 292.641M109.985 378.213C109.985 380.184 109.985 382.154 109.985 384.32C113.505 384.32 116.581 384.32 119.891 384.32C119.891 381.007 119.891 377.937 119.891 374.375C117.168 374.375 114.667 374.114 112.275 374.511C111.382 374.659 110.743 376.341 109.985 378.213M120.044 307.716C120.044 304.819 120.044 301.922 120.044 299.02C116.414 299.02 113.389 299.02 110.316 299.02C110.316 302.392 110.316 305.417 110.316 308.836C113.613 308.69 116.544 308.561 120.044 307.716M112.244 323.739C114.797 323.739 117.35 323.739 119.906 323.739C119.906 320.03 119.906 317.132 119.906 313.962C116.597 313.962 113.56 313.962 109.444 313.962C110.122 317.428 110.735 320.558 112.244 323.739M118.607 359.403C115.864 359.403 113.121 359.403 110.279 359.403C110.279 362.986 110.279 366.041 110.279 369.083C113.65 369.083 116.694 369.083 120.413 369.083C120.078 365.693 119.78 362.682 118.607 359.403M23.8452 374.376C22.4069 374.465 20.9686 374.554 19.4586 374.648C19.4586 378.047 19.4586 381.11 19.4586 384.261C22.7976 384.261 25.8562 384.261 28.9877 384.261C28.9877 380.901 28.9877 377.839 28.9877 374.597C27.4059 374.514 26.1042 374.445 23.8452 374.376M28.5537 308.49C28.8472 305.343 29.1408 302.196 29.4445 298.941C25.5879 298.941 22.6537 298.941 19.4593 298.941C19.4593 302.24 19.4593 305.289 19.4593 308.699C22.3749 308.699 25.0036 308.699 28.5537 308.49M28.5299 389.729C25.4683 389.729 22.4067 389.729 19.5752 389.729C19.5752 393.3 19.5752 396.342 19.5752 399.17C23.0213 399.17 26.0602 399.17 29.1581 399.17C29.1581 395.994 29.1581 393.199 28.5299 389.729M23.8573 293.553C25.5928 293.553 27.3283 293.553 28.8931 293.553C28.8931 289.775 28.8931 286.745 28.8931 283.911C25.4383 283.911 22.3902 283.911 19.1861 283.911C19.1861 286.254 19.3654 288.252 19.1449 290.204C18.7969 293.287 20.3826 293.881 23.8573 293.553M29.2982 363.1C28.761 358.889 27.2571 358.411 19.5769 359.977C19.5769 363.051 19.5769 366.095 19.5769 369.137C22.9211 369.137 25.8507 369.137 29.2986 369.137C29.2986 367.254 29.2986 365.636 29.2982 363.1M29.2808 271.2C27.3027 265.085 22.7628 269.954 19.4392 268.179C19.4392 272.008 19.4392 275.072 19.4392 278.277C22.759 278.277 25.8195 278.277 29.2832 278.277C29.2832 276.058 29.2832 274.098 29.2808 271.2M23.8689 313.691C22.424 313.778 20.9792 313.866 19.5396 313.952C19.5396 317.39 19.5396 320.446 19.5396 323.321C22.9774 323.321 26.0336 323.321 28.987 323.321C28.987 319.974 28.987 317.05 28.987 314.25C28.3817 314.011 28.0889 313.811 27.7838 313.79C26.7888 313.722 25.7894 313.719 23.8689 313.691Z" fill="#131311" fill-rule="nonzero" opacity="1" stroke="none" vectornator:layerName="path"/>
<path d="M72 130.841C63.541 130.841 55.5821 130.841 47.2672 130.841C47.2672 117.3 47.2672 104.083 47.2672 90.5113C70.3842 90.5113 93.5911 90.5113 117.177 90.5113C117.177 103.65 117.177 116.868 117.177 130.841C102.264 130.841 87.382 130.841 72 130.841Z" fill="#ff4057" fill-rule="nonzero" opacity="1" stroke="none" vectornator:layerName="path"/>
<path d="M117.544 70.9892C117.544 75.7914 117.544 80.0962 117.544 84.7798C94.0148 84.7798 70.8323 84.7798 47.2816 84.7798C47.2816 71.7813 47.2816 58.5922 47.2816 45.1175C70.5146 45.1175 93.72 45.1175 117.544 45.1175C117.544 53.6185 117.544 62.0551 117.544 70.9892Z" fill="#ff4057" fill-rule="nonzero" opacity="1" stroke="none" vectornator:layerName="path"/>
<path d="M63.0022 135.835C81.3029 135.835 99.1043 135.835 117.224 135.835C117.224 149.256 117.224 162.327 117.224 175.7C93.9243 175.7 70.7123 175.7 47.207 175.7C47.207 162.602 47.207 149.541 47.207 135.835C52.3168 135.835 57.4098 135.835 63.0022 135.835Z" fill="#ff4057" fill-rule="nonzero" opacity="1" stroke="none" vectornator:layerName="path"/>
<path d="M205.177 47.0056C205.177 66.1194 205.177 84.7346 205.177 103.595C201.579 103.595 198.499 103.595 195.055 103.595C195.055 87.3109 195.055 71.2092 195.055 55.1074C194.806 55.0876 194.557 55.0677 194.308 55.0479C191.942 71.2501 189.576 87.4523 187.212 103.631C183.426 103.631 180.138 103.631 176.523 103.631C173.919 87.6457 171.339 71.8101 168.76 55.9744C168.488 56.0028 168.216 56.0312 167.943 56.0595C167.943 71.8355 167.943 87.6116 167.943 103.612C164.843 103.612 162.06 103.612 158.874 103.612C158.874 80.2561 158.874 56.8862 158.874 33.2524C163.844 33.2524 168.771 33.2524 174.011 33.2524C176.587 48.7496 179.165 64.2563 181.743 79.7631C182.139 79.7589 182.535 79.7546 182.932 79.7503C185.204 64.2566 187.476 48.7629 189.764 33.161C194.913 33.161 199.701 33.161 205.177 33.161C205.177 37.6627 205.177 42.0849 205.177 47.0056Z" fill="#ff4057" fill-rule="nonzero" opacity="1" stroke="none" vectornator:layerName="path"/>
<path d="M322.506 33.0096C327.113 32.9948 331.264 32.9948 335.795 32.9948C335.795 56.5509 335.795 79.9098 335.795 103.557C332.673 103.557 329.594 103.557 326.115 103.557C326.115 87.4072 326.115 71.322 326.115 55.2369C325.837 55.2137 325.56 55.1905 325.283 55.1673C322.85 71.2834 320.417 87.3996 317.967 103.626C314.387 103.626 311.113 103.626 307.522 103.626C304.917 87.6383 302.339 71.8074 299.76 55.9764C299.489 56.0051 299.218 56.0338 298.947 56.0625C298.947 71.8354 298.947 87.6083 298.947 103.609C295.853 103.609 293.07 103.609 289.88 103.609C289.88 80.2674 289.88 56.9055 289.88 33.2659C294.82 33.2659 299.741 33.2659 305.008 33.2659C307.53 48.8966 310.057 64.5599 312.585 80.2232C312.947 80.2136 313.309 80.204 313.671 80.1944C315.793 66.0123 317.875 51.8238 320.096 37.657C320.348 36.0502 321.38 34.5657 322.506 33.0096Z" fill="#ff4057" fill-rule="nonzero" opacity="1" stroke="none" vectornator:layerName="path"/>
<path d="M343.987 187.521C340.559 187.521 337.605 187.521 334.43 187.521C334.43 164.19 334.43 141.464 334.43 117.638C342.199 118.077 349.952 118.076 357.543 119.186C360.189 119.573 363.202 122.226 364.719 124.669C369.501 132.366 367.198 144.46 360.39 150.517C368.618 156.264 371.409 175.16 364.328 182.168C361.459 185.008 356.562 186.026 352.404 187.247C349.941 187.97 347.12 187.471 343.987 187.521M356.995 162.992C355.636 156.468 352.929 155.038 345.391 156.903C345.391 163.602 345.391 170.31 345.391 176.968C355.308 178.576 357.061 177.168 357.065 167.856C357.066 166.53 357.043 165.204 356.995 162.992M355.094 143.334C358.453 131.72 355.287 126.84 345.351 128.581C345.351 134.262 345.351 139.969 345.351 146.982C348.832 145.901 351.76 144.992 355.094 143.334Z" fill="#ff4057" fill-rule="nonzero" opacity="1" stroke="none" vectornator:layerName="path"/>
<path d="M185.699 184.923C176.757 186.261 168.146 187.407 159.02 188.621C159.02 164.206 159.02 141.312 159.02 118.178C165.792 118.178 172.626 117.753 179.383 118.292C186.748 118.881 191.62 124.186 191.847 132.141C192.235 145.784 192.41 159.467 191.707 173.084C191.503 177.053 188.013 180.853 185.699 184.923M169.594 169.488C169.594 172.066 169.594 174.645 169.594 177.135C180.163 178.003 181.123 177.126 181.129 167.398C181.135 157.566 181.138 147.735 181.128 137.903C181.117 128.267 179.401 126.843 169.594 128.655C169.594 141.887 169.594 155.19 169.594 169.488Z" fill="#ff4057" fill-rule="nonzero" opacity="1" stroke="none" vectornator:layerName="path"/>
<path d="M381.836 96.569C377.669 103.117 371.229 105.559 362.991 104.093C356.052 102.857 352.29 98.5094 350.874 91.8572C350.53 90.2381 350.224 88.5721 350.217 86.9263C350.16 74.6067 349.982 62.2827 350.234 49.9681C350.507 36.6655 358.705 30.2522 371.71 32.7228C378.66 34.0431 383.495 38.9004 383.726 46.6073C384.159 61.0764 383.932 75.5682 383.779 90.0485C383.757 92.1105 382.617 94.1608 381.836 96.569M373.01 75.4938C372.985 66.5177 373.016 57.541 372.907 48.566C372.864 44.9641 371.188 42.3826 367.281 42.346C363.403 42.3096 361.613 44.6963 361.603 48.416C361.57 61.7121 361.549 75.0085 361.611 88.3044C361.627 91.7048 363.17 94.1131 366.901 94.2649C370.844 94.4253 372.697 92.112 372.875 88.4536C373.068 84.4729 372.977 80.4785 373.01 75.4938Z" fill="#ff4057" fill-rule="nonzero" opacity="1" stroke="none" vectornator:layerName="path"/>
<path d="M233.347 187.523C231.788 186.493 230.027 185.653 229.65 184.397C228.759 181.43 228.525 178.265 228.003 175.044C223.545 175.044 219.424 175.044 214.857 175.044C214.144 179.099 213.436 183.124 212.698 187.321C209.584 187.321 206.62 187.321 202.856 187.321C206.536 164.231 210.182 141.351 213.864 118.253C219.202 118.253 224.296 118.253 229.912 118.253C233.561 141.068 237.224 163.975 240.99 187.524C238.318 187.524 236.047 187.524 233.347 187.523M219.52 142.008C218.402 149.69 217.283 157.373 216.133 165.273C219.714 165.273 222.813 165.273 226.55 165.273C224.972 154.418 223.446 143.921 221.921 133.423C221.565 133.424 221.21 133.425 220.855 133.426C220.468 136.004 220.082 138.583 219.52 142.008Z" fill="#ff4057" fill-rule="nonzero" opacity="1" stroke="none" vectornator:layerName="path"/>
<path d="M290.677 187.524C288.6 187.525 286.955 187.525 284.382 187.525C288.095 164.165 291.728 141.308 295.393 118.245C300.777 118.245 305.877 118.245 311.469 118.245C315.116 141.142 318.764 164.047 322.413 186.955C311.921 188.569 311.921 188.569 309.499 175.192C305.316 175.192 301.063 175.192 296.258 175.192C295.827 178.084 295.693 181.254 294.769 184.174C294.337 185.54 292.377 186.422 290.677 187.524M307.498 160.859C306.112 151.572 304.726 142.285 303.34 132.998C302.995 133.048 302.65 133.098 302.305 133.148C300.784 143.769 299.263 154.389 297.698 165.318C301.42 165.318 304.521 165.318 307.861 165.318C307.795 163.961 307.739 162.831 307.498 160.859Z" fill="#ff4057" fill-rule="nonzero" opacity="1" stroke="none" vectornator:layerName="path"/>
<path d="M388.248 125.285C388.712 122.753 389.099 120.648 389.534 118.284C394.741 118.284 399.838 118.284 405.5 118.284C409.131 141.061 412.782 163.961 416.43 186.844C405.78 188.842 405.78 188.842 403.613 175.22C399.296 175.22 394.914 175.22 390.339 175.22C390.078 176.775 389.843 178.222 389.59 179.667C388.101 188.183 388.1 188.182 378.523 187.044C381.741 166.586 384.956 146.149 388.248 125.285M392.438 159.878C392.263 161.619 392.089 163.361 391.897 165.277C395.539 165.277 398.619 165.277 402.187 165.277C400.559 154.286 398.982 143.638 397.404 132.99C395.775 137.291 395.158 141.509 394.548 145.727C393.907 150.156 393.272 154.587 392.438 159.878Z" fill="#ff4057" fill-rule="nonzero" opacity="1" stroke="none" vectornator:layerName="path"/>
<path d="M410.291 103.843C405.936 104.665 405.634 101.973 405.214 99.2369C401.858 77.3997 398.466 55.5682 395.027 33.3583C398.671 33.3583 402.209 33.3583 406.278 33.3583C408.929 51.2271 411.606 69.2778 414.284 87.3284C414.649 87.3772 415.015 87.4261 415.38 87.4749C417.994 69.4694 420.609 51.4639 423.254 33.2426C426.534 33.2426 429.631 33.2426 433.467 33.2426C429.844 56.6666 426.25 79.8932 422.545 103.843C418.603 103.843 414.678 103.843 410.291 103.843Z" fill="#ff4057" fill-rule="nonzero" opacity="1" stroke="none" vectornator:layerName="path"/>
<path d="M471.461 37.3007C471.454 34.8387 471.088 32.8732 474.319 32.9311C483.282 33.0918 492.251 32.9868 501.533 32.9868C501.533 36.3671 501.533 39.4174 501.533 42.8439C495.491 42.8439 489.557 42.8439 483.24 42.8439C483.24 49.5586 483.24 55.9142 483.24 62.7605C488.046 62.7605 492.794 62.7605 497.77 62.7605C497.77 66.3188 497.77 69.3979 497.77 72.9224C492.938 72.9224 488.187 72.9224 483.151 72.9224C483.151 79.9388 483.151 86.5197 483.151 93.676C489.157 93.676 495.228 93.676 501.565 93.676C501.565 97.1746 501.565 100.116 501.565 103.457C491.845 103.457 481.969 103.457 471.461 103.457C471.461 81.6193 471.461 59.6935 471.461 37.3007Z" fill="#ff4057" fill-rule="nonzero" opacity="1" stroke="none" vectornator:layerName="path"/>
<path d="M442.931 178.14C448.071 176.428 449.969 172.34 447.245 166.957C445.212 162.939 442.01 159.287 438.651 156.212C431.912 150.043 426.567 143.521 426.933 133.65C427.339 122.687 433.798 116.427 444.4 117.249C454.599 118.04 460.084 125.471 458.502 136.623C455.44 136.623 452.346 136.623 449.191 136.623C448.873 134.637 449.116 132.466 448.169 131.154C446.919 129.422 444.657 127.218 442.975 127.333C441.238 127.452 438.672 129.862 438.223 131.698C436.938 136.957 439.307 141.406 443.046 145.128C446.581 148.647 450.34 151.97 453.606 155.722C459.166 162.112 460.385 169.65 458.146 177.694C456.086 185.092 450.404 188.541 441.561 188.096C433.704 187.701 428.423 183.43 427.182 176.115C426.69 173.209 426.805 170.199 426.622 166.847C430.264 166.847 433.47 166.847 436.634 166.847C437.914 171.119 434.731 177.516 442.931 178.14Z" fill="#ff4057" fill-rule="nonzero" opacity="1" stroke="none" vectornator:layerName="path"/>
<path d="M472.056 126.069C472.056 123.273 472.056 120.966 472.056 118.327C482.03 118.327 491.728 118.327 501.68 118.327C501.68 121.355 501.68 124.293 501.68 127.752C495.751 127.752 489.691 127.752 483.324 127.752C483.324 134.322 483.324 140.386 483.324 146.991C487.958 146.991 492.68 146.991 497.697 146.991C497.697 150.569 497.697 153.62 497.697 157.038C493.007 157.038 488.408 157.038 483.412 157.038C483.412 163.909 483.412 170.434 483.412 177.404C489.369 177.404 495.292 177.404 501.568 177.404C501.568 180.867 501.568 183.91 501.568 187.242C491.964 187.242 482.376 187.242 472.056 187.242C472.056 166.964 472.056 146.761 472.056 126.069Z" fill="#ff4057" fill-rule="nonzero" opacity="1" stroke="none" vectornator:layerName="path"/>
<path d="M250.152 32.9918C252.092 32.9918 253.573 32.9918 255.437 32.9918C250.247 56.5703 238.032 78.3708 242.414 103.527C238.168 103.527 234.784 103.527 230.391 103.527C234.366 78.5594 222.436 56.7682 217.005 32.9918C218.917 32.9918 220.652 32.9918 222.386 32.9918C224.204 32.9918 226.021 32.9918 228.223 32.9918C230.957 43.2389 233.651 53.3365 236.73 64.8764C239.768 53.5374 242.464 43.4817 245.275 32.9918C246.763 32.9918 248.228 32.9918 250.152 32.9918Z" fill="#ff4057" fill-rule="nonzero" opacity="1" stroke="none" vectornator:layerName="path"/>
<path d="M277.547 118.01C278.721 121.118 279.439 124.213 280.285 127.859C275.661 127.859 272.224 127.859 268.299 127.859C268.299 147.731 268.299 167.27 268.299 187.162C264.436 187.162 261.057 187.162 257.161 187.162C257.161 167.475 257.161 147.957 257.161 128.038C253.244 128.038 249.825 128.038 246.146 128.038C246.146 124.581 246.146 121.528 246.146 117.998C256.558 117.998 266.824 117.998 277.547 118.01Z" fill="#ff4057" fill-rule="nonzero" opacity="1" stroke="none" vectornator:layerName="path"/>
<path d="M456.584 45.0257C456.584 64.7912 456.584 84.0617 456.584 103.606C452.732 103.606 449.338 103.606 445.71 103.606C445.71 80.0412 445.71 56.6618 445.71 33.1225C449.303 33.1225 452.603 33.1225 456.584 33.1225C456.584 36.9985 456.584 40.7647 456.584 45.0257Z" fill="#ff4057" fill-rule="nonzero" opacity="1" stroke="none" vectornator:layerName="path"/>
<path d="M131.429 120.566C132.273 123.823 132.698 126.975 133.179 130.54C129.32 130.54 126.25 130.54 122.852 130.54C122.852 127.468 122.852 124.374 122.852 120.461C125.536 120.461 128.273 120.461 131.429 120.566Z" fill="#ff4057" fill-rule="nonzero" opacity="1" stroke="none" vectornator:layerName="path"/>
<path d="M31.7258 109.259C32.6553 107.698 33.4097 105.84 34.551 105.56C36.7109 105.031 39.093 105.407 41.6562 105.407C41.6562 108.848 41.6562 111.773 41.6562 115.152C38.5396 115.152 35.3773 115.152 31.7253 115.152C31.7253 113.258 31.7253 111.467 31.7258 109.259Z" fill="#ff4057" fill-rule="nonzero" opacity="1" stroke="none" vectornator:layerName="path"/>
<path d="M122.545 107.549C125.628 106.315 128.69 105.502 132.412 104.515C132.412 108.793 132.412 111.83 132.412 115.243C129.391 115.243 126.324 115.243 122.524 115.243C122.524 112.816 122.524 110.393 122.545 107.549Z" fill="#ff4057" fill-rule="nonzero" opacity="1" stroke="none" vectornator:layerName="path"/>
<path d="M32.4073 130.457C32.048 127.08 32.048 123.999 32.048 120.722C35.3674 120.722 38.4285 120.722 41.705 120.722C41.705 124.095 41.705 127.165 41.705 130.752C38.6016 130.752 35.684 130.752 32.4073 130.457Z" fill="#ff4057" fill-rule="nonzero" opacity="1" stroke="none" vectornator:layerName="path"/>
<path d="M122.903 45.5833C126.071 45.0332 129.031 44.8773 132.386 44.7005C132.386 48.1676 132.386 51.2249 132.386 54.6522C129.399 54.6522 126.323 54.6522 122.695 54.6522C122.695 51.8409 122.695 48.9091 122.903 45.5833Z" fill="#ff4057" fill-rule="nonzero" opacity="1" stroke="none" vectornator:layerName="path"/>
<path d="M124.427 166.009C127.32 165.993 129.768 165.993 132.489 165.993C132.489 169.455 132.489 172.501 132.489 175.78C129.179 175.78 126.113 175.78 121.998 175.78C122.707 172.296 123.345 169.16 124.427 166.009Z" fill="#ff4057" fill-rule="nonzero" opacity="1" stroke="none" vectornator:layerName="path"/>
<path d="M132.334 69.4359C129.08 69.7805 126.121 69.7805 122.874 69.7805C122.874 66.6685 122.874 63.5989 122.874 60.2566C126.03 60.2566 129.089 60.2566 132.628 60.2566C132.628 63.2475 132.628 66.1694 132.334 69.4359Z" fill="#ff4057" fill-rule="nonzero" opacity="1" stroke="none" vectornator:layerName="path"/>
<path d="M122.59 154.22C123.346 152.792 123.985 151.109 124.878 150.961C127.27 150.565 129.771 150.826 132.494 150.826C132.494 154.388 132.494 157.458 132.494 160.77C129.184 160.77 126.108 160.77 122.588 160.77C122.588 158.605 122.588 156.635 122.59 154.22Z" fill="#ff4057" fill-rule="nonzero" opacity="1" stroke="none" vectornator:layerName="path"/>
<path d="M132.363 84.5242C129.147 85.0115 126.216 85.141 122.919 85.2866C122.919 81.8681 122.919 78.8424 122.919 75.471C125.992 75.471 129.017 75.471 132.647 75.471C132.647 78.3724 132.647 81.2693 132.363 84.5242Z" fill="#ff4057" fill-rule="nonzero" opacity="1" stroke="none" vectornator:layerName="path"/>
<path d="M124.399 100.165C123.338 97.0091 122.725 93.8784 122.047 90.4132C126.162 90.4132 129.2 90.4132 132.508 90.4132C132.508 93.5832 132.508 96.4807 132.508 100.19C129.953 100.19 127.4 100.19 124.399 100.165Z" fill="#ff4057" fill-rule="nonzero" opacity="1" stroke="none" vectornator:layerName="path"/>
<path d="M131.648 135.988C132.383 139.133 132.681 142.144 133.016 145.534C129.297 145.534 126.253 145.534 122.881 145.534C122.881 142.492 122.881 139.437 122.881 135.854C125.724 135.854 128.467 135.854 131.648 135.988Z" fill="#ff4057" fill-rule="nonzero" opacity="1" stroke="none" vectornator:layerName="path"/>
<path d="M36.9267 150.827C38.7071 150.895 40.0088 150.964 41.5906 151.048C41.5906 154.29 41.5906 157.351 41.5906 160.712C38.4591 160.712 35.4004 160.712 32.0614 160.712C32.0614 157.56 32.0614 154.498 32.0614 151.098C33.5715 151.005 35.0098 150.916 36.9267 150.827Z" fill="#ff4057" fill-rule="nonzero" opacity="1" stroke="none" vectornator:layerName="path"/>
<path d="M40.6959 85.045C37.6065 85.1497 34.9777 85.1497 32.0622 85.1497C32.0622 81.7399 32.0622 78.6908 32.0622 75.3916C35.2566 75.3916 38.1908 75.3916 42.0474 75.3916C41.7437 78.6468 41.4501 81.7935 40.6959 85.045Z" fill="#ff4057" fill-rule="nonzero" opacity="1" stroke="none" vectornator:layerName="path"/>
<path d="M41.4469 166.518C41.761 169.65 41.761 172.445 41.761 175.621C38.6631 175.621 35.6241 175.621 32.1781 175.621C32.1781 172.793 32.1781 169.751 32.1781 166.18C35.0096 166.18 38.0712 166.18 41.4469 166.518Z" fill="#ff4057" fill-rule="nonzero" opacity="1" stroke="none" vectornator:layerName="path"/>
<path d="M35.9912 70.0041C32.9854 70.3321 31.3998 69.7378 31.7478 66.6552C31.9682 64.7026 31.789 62.7048 31.789 60.3617C34.9931 60.3617 38.0412 60.3617 41.496 60.3617C41.496 63.1956 41.496 66.2257 41.496 70.0042C39.9311 70.0042 38.1956 70.0042 35.9912 70.0041Z" fill="#ff4057" fill-rule="nonzero" opacity="1" stroke="none" vectornator:layerName="path"/>
<path d="M41.9013 140.009C41.9014 142.086 41.9014 143.705 41.9014 145.588C38.4536 145.588 35.524 145.588 32.1798 145.588C32.1798 142.546 32.1798 139.502 32.1798 136.428C39.8599 134.862 41.3639 135.34 41.9013 140.009Z" fill="#ff4057" fill-rule="nonzero" opacity="1" stroke="none" vectornator:layerName="path"/>
<path d="M41.8849 48.119C41.8861 50.5483 41.8861 52.5089 41.8861 54.7282C38.4224 54.7282 35.3619 54.7282 32.0421 54.7282C32.0421 51.5224 32.0421 48.4583 32.0421 44.6299C35.3657 46.4044 39.9056 41.5362 41.8849 48.119Z" fill="#ff4057" fill-rule="nonzero" opacity="1" stroke="none" vectornator:layerName="path"/>
<path d="M36.9332 90.1421C38.3923 90.17 39.3917 90.1727 40.3866 90.2408C40.6917 90.2617 40.9846 90.4617 41.5899 90.7011C41.5899 93.5004 41.5899 96.4245 41.5899 99.7721C38.6365 99.7721 35.5802 99.7721 32.1425 99.7721C32.1425 96.8967 32.1425 93.841 32.1425 90.4031C33.582 90.3163 35.0269 90.2292 36.9332 90.1421Z" fill="#ff4057" fill-rule="nonzero" opacity="1" stroke="none" vectornator:layerName="path"/>
</g>
</svg>
