<?xml version="1.0" encoding="UTF-8" standalone="no"?>
<!DOCTYPE svg PUBLIC "-//W3C//DTD SVG 1.1//EN" "http://www.w3.org/Graphics/SVG/1.1/DTD/svg11.dtd">
<!-- Created with Vectornator (http://vectornator.io/) -->
<svg height="100%" stroke-miterlimit="10" style="fill-rule:nonzero;clip-rule:evenodd;stroke-linecap:round;stroke-linejoin:round;" version="1.1" viewBox="0 0 2286.23 754.818" width="100%" xml:space="preserve" xmlns="http://www.w3.org/2000/svg" xmlns:vectornator="http://vectornator.io" xmlns:xlink="http://www.w3.org/1999/xlink">
<defs/>
<g id="Layer-2" vectornator:layerName="Layer 2">
<g opacity="1" vectornator:layerName="Group 3">
<path d="M897.641 181.559L940.867 181.559L940.867 96.6291C940.867 69.2325 954.869 55.8385 973.438 55.8385C990.485 55.8385 1001.44 67.1016 1001.44 92.3674L1001.44 181.559L1044.67 181.559L1044.67 96.6291C1044.67 69.2325 1058.67 55.8385 1077.55 55.8385C1094.59 55.8385 1105.55 67.1016 1105.55 92.3674L1105.55 181.559L1148.78 181.559L1148.78 79.2779C1148.78 39.0961 1125.34 16.2656 1093.07 16.2656C1070.54 16.2656 1048.93 27.5287 1037.97 46.4019C1028.84 26.9199 1011.18 16.2656 989.876 16.2656C969.481 16.2656 950.912 26.0066 939.954 42.4446L939.954 18.7009L897.641 18.7009L897.641 181.559Z" fill="#dcdcdc" fill-rule="nonzero" opacity="1" stroke="none"/>
<path d="M1180.13 245.789L1205.7 245.789C1235.23 245.789 1252.28 233.917 1262.63 205.911L1333.25 18.7009L1287.89 18.7009L1249.23 131.027L1209.35 18.7009L1163.08 18.7009L1226.71 182.776L1223.66 190.691C1219.09 203.78 1213.01 207.738 1198.09 207.738L1180.13 207.738L1180.13 245.789Z" fill="#dcdcdc" fill-rule="nonzero" opacity="1" stroke="none"/>
</g>
<g opacity="1" vectornator:layerName="Group 4">
<path d="M897.641 462.517L940.867 462.517L940.867 377.588C940.867 350.191 954.869 336.797 973.438 336.797C990.485 336.797 1001.44 348.06 1001.44 373.326L1001.44 462.517L1044.67 462.517L1044.67 377.588C1044.67 350.191 1058.67 336.797 1077.55 336.797C1094.59 336.797 1105.55 348.06 1105.55 373.326L1105.55 462.517L1148.78 462.517L1148.78 360.237C1148.78 320.055 1125.34 297.224 1093.07 297.224C1070.54 297.224 1048.93 308.487 1037.97 327.361C1028.84 307.878 1011.18 297.224 989.876 297.224C969.481 297.224 950.912 306.965 939.954 323.403L939.954 299.659L897.641 299.659L897.641 462.517Z" fill="#dcdcdc" fill-rule="nonzero" opacity="1" stroke="none"/>
<path d="M1259.58 464.953C1307.68 464.953 1343.6 430.25 1343.6 380.936C1343.6 331.622 1307.68 297.224 1259.58 297.224C1211.79 297.224 1175.87 331.622 1175.87 380.936C1175.87 430.25 1211.79 464.953 1259.58 464.953ZM1219.7 380.936C1219.7 352.931 1236.14 335.275 1259.58 335.275C1283.02 335.275 1299.76 352.931 1299.76 380.936C1299.76 408.942 1283.02 426.902 1259.58 426.902C1236.14 426.902 1219.7 408.942 1219.7 380.936Z" fill="#dcdcdc" fill-rule="nonzero" opacity="1" stroke="none"/>
<path d="M1413.61 462.517L1460.49 462.517L1522.89 299.659L1476.93 299.659L1437.66 411.073L1398.39 299.659L1351.21 299.659L1413.61 462.517Z" fill="#dcdcdc" fill-rule="nonzero" opacity="1" stroke="none"/>
<path d="M1544.2 462.517L1587.43 462.517L1587.43 299.659L1544.2 299.659L1544.2 462.517ZM1538.11 253.085C1538.11 268.306 1550.59 279.873 1565.81 279.873C1581.04 279.873 1593.52 268.306 1593.52 253.085C1593.52 237.56 1581.04 225.993 1565.81 225.993C1550.59 225.993 1538.11 237.56 1538.11 253.085Z" fill="#dcdcdc" fill-rule="nonzero" opacity="1" stroke="none"/>
<path d="M1701.88 464.953C1740.85 464.953 1771.59 444.253 1780.42 410.159L1738.72 410.159C1732.93 422.031 1719.54 429.337 1702.49 429.337C1679.66 429.337 1662.62 416.552 1658.96 390.982L1781.64 390.982C1782.25 386.72 1782.55 381.849 1782.55 377.283C1782.55 328.274 1747.24 297.224 1701.88 297.224C1653.48 297.224 1616.65 331.622 1616.65 382.154C1616.65 432.077 1651.96 464.953 1701.88 464.953ZM1661.09 361.759C1666.88 342.581 1682.1 332.535 1701.88 332.535C1721.06 332.535 1735.07 341.972 1739.33 361.759L1661.09 361.759Z" fill="#dcdcdc" fill-rule="nonzero" opacity="1" stroke="none"/>
</g>
<g opacity="1" vectornator:layerName="Group 5">
<path d="M969.926 738.553C991.344 738.553 1009.79 729.034 1019.6 713.863L1019.6 736.173L1060.95 736.173L1060.95 519.019L1018.71 519.019L1018.71 598.146C1008.6 583.57 990.749 574.646 969.926 574.646C930.065 574.646 897.641 607.07 897.641 656.451C897.641 706.128 930.065 738.553 969.926 738.553ZM940.477 656.451C940.477 629.083 957.135 611.83 980.041 611.83C1002.95 611.83 1019.6 629.083 1019.6 656.451C1019.6 683.818 1002.95 701.369 980.041 701.369C957.135 701.369 940.477 683.818 940.477 656.451Z" fill="#dcdcdc" fill-rule="nonzero" opacity="1" stroke="none"/>
<path d="M1144.24 737.958C1167.45 737.958 1187.08 728.736 1197.49 712.375C1201.36 728.141 1214.15 736.173 1233.49 736.173L1253.71 736.173L1253.71 701.369L1248.06 701.369C1239.73 701.369 1236.16 697.502 1236.16 689.173L1236.16 638.305C1236.16 597.254 1211.77 574.646 1167.15 574.646C1124.02 574.646 1096.65 595.469 1093.38 628.488L1137.11 628.488C1138.89 615.995 1149.3 608.26 1166.26 608.26C1185 608.26 1195.41 618.077 1195.41 636.818L1195.41 640.982L1151.98 640.982C1112.12 640.982 1087.43 660.615 1087.43 689.768C1087.43 718.325 1110.63 737.958 1144.24 737.958ZM1129.97 687.09C1129.97 675.786 1139.78 669.242 1158.82 669.242L1195.41 669.242L1195.41 669.539C1195.41 690.362 1178.75 705.534 1155.25 705.534C1139.49 705.534 1129.97 698.394 1129.97 687.09Z" fill="#dcdcdc" fill-rule="nonzero" opacity="1" stroke="none"/>
<path d="M1334.03 736.173L1369.13 736.173L1369.13 699.287L1346.82 699.287C1331.95 699.287 1326.89 694.23 1326.89 679.059L1326.89 613.615L1369.13 613.615L1369.13 577.026L1326.89 577.026L1326.89 540.139L1284.65 540.139L1284.65 565.127C1284.65 573.754 1281.38 577.026 1272.75 577.026L1259.07 577.026L1259.07 613.615L1284.65 613.615L1284.65 686.793C1284.65 719.515 1301.31 736.173 1334.03 736.173Z" fill="#dcdcdc" fill-rule="nonzero" opacity="1" stroke="none"/>
<path d="M1444.1 737.958C1467.3 737.958 1486.93 728.736 1497.34 712.375C1501.21 728.141 1514 736.173 1533.34 736.173L1553.57 736.173L1553.57 701.369L1547.91 701.369C1539.58 701.369 1536.01 697.502 1536.01 689.173L1536.01 638.305C1536.01 597.254 1511.62 574.646 1467 574.646C1423.87 574.646 1396.5 595.469 1393.23 628.488L1436.96 628.488C1438.74 615.995 1449.15 608.26 1466.11 608.26C1484.85 608.26 1495.26 618.077 1495.26 636.818L1495.26 640.982L1451.83 640.982C1411.97 640.982 1387.28 660.615 1387.28 689.768C1387.28 718.325 1410.48 737.958 1444.1 737.958ZM1429.82 687.09C1429.82 675.786 1439.63 669.242 1458.67 669.242L1495.26 669.242L1495.26 669.539C1495.26 690.362 1478.6 705.534 1455.1 705.534C1439.34 705.534 1429.82 698.394 1429.82 687.09Z" fill="#dcdcdc" fill-rule="nonzero" opacity="1" stroke="none"/>
<path d="M1666.31 738.553C1706.17 738.553 1738.59 706.128 1738.59 656.451C1738.59 607.07 1706.17 574.646 1666.31 574.646C1645.48 574.646 1627.64 583.57 1617.52 598.146L1617.52 519.019L1575.28 519.019L1575.28 736.173L1616.63 736.173L1616.63 713.863C1626.45 729.034 1644.89 738.553 1666.31 738.553ZM1616.63 656.451C1616.63 629.083 1633.29 611.83 1656.19 611.83C1679.1 611.83 1695.76 629.083 1695.76 656.451C1695.76 683.818 1679.1 701.369 1656.19 701.369C1633.29 701.369 1616.63 683.818 1616.63 656.451Z" fill="#dcdcdc" fill-rule="nonzero" opacity="1" stroke="none"/>
<path d="M1814.75 737.958C1837.95 737.958 1857.58 728.736 1867.99 712.375C1871.86 728.141 1884.65 736.173 1903.99 736.173L1924.21 736.173L1924.21 701.369L1918.56 701.369C1910.23 701.369 1906.66 697.502 1906.66 689.173L1906.66 638.305C1906.66 597.254 1882.27 574.646 1837.65 574.646C1794.52 574.646 1767.15 595.469 1763.88 628.488L1807.61 628.488C1809.39 615.995 1819.8 608.26 1836.76 608.26C1855.5 608.26 1865.91 618.077 1865.91 636.818L1865.91 640.982L1822.48 640.982C1782.62 640.982 1757.93 660.615 1757.93 689.768C1757.93 718.325 1781.13 737.958 1814.75 737.958ZM1800.47 687.09C1800.47 675.786 1810.28 669.242 1829.32 669.242L1865.91 669.242L1865.91 669.539C1865.91 690.362 1849.25 705.534 1825.75 705.534C1809.99 705.534 1800.47 698.394 1800.47 687.09Z" fill="#dcdcdc" fill-rule="nonzero" opacity="1" stroke="none"/>
<path d="M2007.51 738.553C2049.75 738.553 2075.03 716.54 2075.03 685.305C2075.03 661.508 2060.16 646.932 2028.92 641.28L2003.04 636.52C1984.6 632.95 1979.54 629.083 1979.54 622.242C1979.54 613.615 1987.58 607.07 2003.64 607.07C2021.19 607.07 2031.3 614.805 2033.09 626.406L2073.55 626.406C2071.17 593.684 2046.48 574.646 2006.32 574.646C1964.08 574.646 1939.09 595.767 1939.09 625.216C1939.09 647.229 1953.37 662.4 1984.6 668.052L2010.78 672.812C2028.92 676.084 2034.58 681.141 2034.58 688.578C2034.58 698.692 2025.65 705.534 2009.59 705.534C1991.74 705.534 1980.14 697.204 1978.65 684.116L1938.2 684.116C1939.09 717.135 1965.86 738.553 2007.51 738.553Z" fill="#dcdcdc" fill-rule="nonzero" opacity="1" stroke="none"/>
<path d="M2178.85 738.553C2216.93 738.553 2246.97 718.325 2255.6 685.008L2214.84 685.008C2209.19 696.609 2196.1 703.749 2179.45 703.749C2157.14 703.749 2140.48 691.255 2136.91 666.267L2256.79 666.267C2257.38 662.103 2257.68 657.343 2257.68 652.881C2257.68 604.988 2223.17 574.646 2178.85 574.646C2131.55 574.646 2095.56 608.26 2095.56 657.641C2095.56 706.426 2130.07 738.553 2178.85 738.553ZM2138.99 637.71C2144.64 618.969 2159.51 609.153 2178.85 609.153C2197.59 609.153 2211.27 618.374 2215.44 637.71L2138.99 637.71Z" fill="#dcdcdc" fill-rule="nonzero" opacity="1" stroke="none"/>
</g>
<g opacity="1" vectornator:layerName="Group 8">
<g opacity="1" vectornator:layerName="Group 2">
<g opacity="1" vectornator:layerName="Group 1">
<path d="M323.688 104.911C246.433 104.911 183.808 167.536 183.808 244.791L183.808 510.001C183.808 587.257 246.433 649.908 323.688 649.908L588.925 649.908C666.18 649.908 728.805 587.257 728.805 510.001L728.805 244.791C728.805 167.536 666.18 104.911 588.925 104.911L342.143 104.911L323.688 104.911ZM387.121 221.547L403.103 242.214L561.49 242.344L562.583 294.975L434.025 295.366L415.18 273.215L338.733 273.449L320.929 295.131L320.122 429.493L289.486 429.832L289.59 246.171L309.763 222.016L387.121 221.547ZM447.404 324.778L466.718 347.242L624.272 347.007L625.261 527.155L351.669 528.092L352.554 347.346L373.56 324.83L447.404 324.778Z" fill="#dcdcdc" fill-rule="nonzero" opacity="1" stroke="#dcdcdc" stroke-linecap="butt" stroke-linejoin="round" stroke-opacity="0" stroke-width="10" vectornator:layerName="Curve 1"/>
</g>
</g>
<g opacity="1" vectornator:layerName="Group 7">
<path d="M489.467 312.388L561.134 312.388L561.134 386.409L489.467 386.409L489.467 312.388Z" fill="none" opacity="1" stroke="#dcdcdc" stroke-linecap="butt" stroke-linejoin="round" stroke-width="10" vectornator:layerName="Rectangle 4"/>
<path d="M561.808 339.553L604.633 339.553C620.562 339.553 633.475 352.466 633.475 368.395L633.475 386.409L561.808 386.409L561.808 339.553Z" fill="none" opacity="1" stroke="#dcdcdc" stroke-linecap="butt" stroke-linejoin="round" stroke-width="10" vectornator:layerName="Rectangle 2"/>
<path d="M417.126 312.388L488.793 312.388L488.793 386.409L417.126 386.409L417.126 312.388Z" fill="none" opacity="1" stroke="#dcdcdc" stroke-linecap="butt" stroke-linejoin="round" stroke-width="10" vectornator:layerName="Rectangle 3"/>
<path d="M344.785 312.388L416.452 312.388L416.452 386.409L344.785 386.409L344.785 312.388Z" fill="none" opacity="1" stroke="#dcdcdc" stroke-linecap="butt" stroke-linejoin="round" stroke-width="10" vectornator:layerName="Rectangle 1"/>
</g>
<g opacity="1" vectornator:layerName="Group 6">
<path d="M489.467 485.606L561.134 485.606L561.134 536.518L489.467 536.518L489.467 485.606Z" fill="none" opacity="1" stroke="#dcdcdc" stroke-linecap="butt" stroke-linejoin="round" stroke-width="10" vectornator:layerName="Rectangle 4"/>
<path d="M561.808 485.606L633.475 485.606L633.475 505.86C633.475 522.792 619.749 536.518 602.817 536.518L561.808 536.518L561.808 485.606Z" fill="none" opacity="1" stroke="#dcdcdc" stroke-linecap="butt" stroke-linejoin="round" stroke-width="10" vectornator:layerName="Rectangle 2"/>
<path d="M417.126 485.606L488.793 485.606L488.793 536.518L417.126 536.518L417.126 485.606Z" fill="none" opacity="1" stroke="#dcdcdc" stroke-linecap="butt" stroke-linejoin="round" stroke-width="10" vectornator:layerName="Rectangle 3"/>
<path d="M344.785 485.606L416.452 485.606L416.452 536.518L371.291 536.518C356.652 536.518 344.785 524.651 344.785 510.012L344.785 485.606Z" fill="none" opacity="1" stroke="#dcdcdc" stroke-linecap="butt" stroke-linejoin="round" stroke-width="10" vectornator:layerName="Rectangle 1"/>
</g>
</g>
</g>
</svg>
